<svg width="20" height="20" viewBox="0 0 20 20" fill="none" xmlns="http://www.w3.org/2000/svg">
<path d="M5.56389 8C4.90203 8 4.70048 8.03892 4.49475 8.14895C4.3431 8.23005 4.23005 8.3431 4.14895 8.49475C4.03892 8.70048 4 8.90203 4 9.56388V14.4361C4 15.098 4.03892 15.2995 4.14895 15.5052C4.23005 15.6569 4.3431 15.7699 4.49475 15.8511C4.70048 15.9611 4.90203 16 5.56389 16H10.4361C11.098 16 11.2995 15.9611 11.5052 15.8511C11.6569 15.7699 11.7699 15.6569 11.8511 15.5052C11.9611 15.2995 12 15.098 12 14.4361V9.56388C12 8.90203 11.9611 8.70048 11.8511 8.49475C11.7699 8.3431 11.6569 8.23005 11.5052 8.14895C11.2995 8.03892 11.098 8 10.4361 8H5.56389ZM6 6V5.5092C6 4.59932 6.10269 4.08003 6.38532 3.55156C6.65283 3.05136 7.05136 2.65283 7.55156 2.38532C8.08003 2.10269 8.59932 2 9.5092 2H14.4361C15.3999 2 15.9134 2.09916 16.4484 2.38532C16.9486 2.65283 17.3472 3.05136 17.6147 3.55156C17.9008 4.08664 18 4.6001 18 5.56389V10.4908C18 11.4007 17.8973 11.92 17.6147 12.4484C17.3472 12.9486 16.9486 13.3472 16.4484 13.6147C15.92 13.8973 15.4007 14 14.4908 14H14V14.4361C14 15.3999 13.9008 15.9134 13.6147 16.4484C13.3472 16.9486 12.9486 17.3472 12.4484 17.6147C11.9134 17.9008 11.3999 18 10.4361 18H5.56389C4.6001 18 4.08664 17.9008 3.55156 17.6147C3.05136 17.3472 2.65283 16.9486 2.38532 16.4484C2.09916 15.9134 2 15.3999 2 14.4361V9.56388C2 8.6001 2.09916 8.08664 2.38532 7.55156C2.65283 7.05136 3.05136 6.65283 3.55156 6.38532C4.08664 6.09916 4.6001 6 5.56389 6H6ZM8 6H10.4361C11.3999 6 11.9134 6.09916 12.4484 6.38532C12.9486 6.65283 13.3472 7.05136 13.6147 7.55156C13.9008 8.08664 14 8.6001 14 9.56388V12H14.4908C15.0975 12 15.3026 11.9595 15.5052 11.8511C15.6569 11.7699 15.7699 11.6569 15.8511 11.5052C15.9595 11.3026 16 11.0975 16 10.4908V5.56389C16 4.90203 15.9611 4.70048 15.8511 4.49475C15.7699 4.3431 15.6569 4.23005 15.5052 4.14895C15.2995 4.03892 15.098 4 14.4361 4H9.5092C8.90248 4 8.69745 4.04054 8.49475 4.14895C8.3431 4.23005 8.23005 4.3431 8.14895 4.49475C8.04054 4.69745 8 4.90248 8 5.5092V6Z" fill="#C30144"/>
</svg>
