<svg width="20" height="20" viewBox="0 0 20 20" fill="none" xmlns="http://www.w3.org/2000/svg">
<path d="M15.7989 14L12.5992 10.0892L10.6508 11.7593C10.2763 12.0803 9.7237 12.0803 9.34921 11.7593L7.40071 10.0891L4.19873 14H15.7989ZM17 12.3097V6.50002C17 6.44392 16.9908 6.38997 16.9737 6.33962L14.1181 8.78732L17 12.3097ZM3 12.307L5.88181 8.78722L3.02628 6.33962C3.00924 6.38997 3 6.44392 3 6.50002V12.307ZM16.9191 4.00323C17.0211 3.99503 17.1239 4.00248 17.2237 4.0253C17.5074 4.05895 17.7304 4.12899 17.96 4.25177C18.2973 4.43212 18.5679 4.70277 18.7482 5.04C18.9354 5.38988 19 5.72459 19 6.28196V13.7181C19 14.2754 18.9354 14.6102 18.7482 14.96C18.5679 15.2973 18.2973 15.5679 17.96 15.7483C17.6101 15.9354 17.2754 16 16.7181 16H3.28194C2.72457 16 2.38986 15.9354 2.03998 15.7483C1.70275 15.5679 1.43211 15.2973 1.25175 14.96C1.06464 14.6102 1 14.2754 1 13.7181V6.28196C1 5.72459 1.06464 5.38988 1.25175 5.04C1.43211 4.70277 1.70275 4.43212 2.03998 4.25177C2.26955 4.12899 2.49259 4.05895 2.77629 4.0253C2.87606 4.00248 2.97889 3.99503 3.08094 4.00323C3.14471 4.00105 3.21155 4 3.28194 4H16.7181C16.7885 4 16.8553 4.00105 16.9191 4.00323ZM5.70326 6.00002L10 9.68294L14.2967 6.00002H5.70326Z" fill="#C30144"/>
</svg>
