<svg width="20" height="20" viewBox="0 0 20 20" fill="none" xmlns="http://www.w3.org/2000/svg">
<path d="M14.5571 5.24332L7.12033 8.71383C7.04526 8.74887 7.0128 8.83812 7.04783 8.91319C7.07248 8.96601 7.12548 8.99976 7.18376 8.99976H10.0001C10.5523 8.99976 11.0001 9.44748 11.0001 9.99976V12.8161C11.0001 12.8989 11.0672 12.9661 11.1501 12.9661C11.2083 12.9661 11.2613 12.9323 11.286 12.8795L14.7565 5.44268C14.7915 5.36761 14.7591 5.27835 14.684 5.24332C14.6438 5.22456 14.5974 5.22456 14.5571 5.24332ZM8.50006 10.9998H3.12695C2.4366 10.9998 1.87695 10.4401 1.87695 9.74976C1.87695 9.26411 2.15825 8.82241 2.59835 8.61703L16.5772 2.09358C17.4235 1.69864 18.3012 2.57636 17.9062 3.42265L11.3828 17.4015C11.0908 18.0271 10.347 18.2975 9.72146 18.0056C9.28136 17.8002 9.00006 17.3585 9.00006 16.8729V11.4998C9.00006 11.2236 8.7762 10.9998 8.50006 10.9998Z" fill="#C30144"/>
</svg>
