<svg width="18" height="18" viewBox="0 0 18 18" fill="none" xmlns="http://www.w3.org/2000/svg">
<path d="M13.0004 15.751V11.001C13.0004 10.4487 13.4481 10.001 14.0004 10.001H14.3996C14.5377 10.001 14.6496 9.88903 14.6496 9.75096C14.6496 9.69419 14.6303 9.63911 14.5948 9.59479L9.39069 3.08963C9.21818 2.874 8.90353 2.83904 8.6879 3.01154C8.65908 3.0346 8.63291 3.06077 8.60985 3.08959L3.40459 9.59477C3.31833 9.70257 3.33579 9.8599 3.4436 9.94616C3.48793 9.98163 3.54302 10.001 3.59979 10.001H4.00038C4.55266 10.001 5.00038 10.4487 5.00038 11.001V15.751C5.00038 15.889 5.1123 16.001 5.25038 16.001H6.75038C6.88845 16.001 7.00038 15.889 7.00038 15.751V14.001C7.00038 12.8964 7.89581 12.001 9.00038 12.001C10.1049 12.001 11.0004 12.8964 11.0004 14.001V16.001H12.7504C12.8884 16.001 13.0004 15.889 13.0004 15.751ZM3.00038 12.001H2.03912C1.69846 12.001 1.36794 11.885 1.10195 11.6722C0.455114 11.1546 0.35033 10.2106 0.867912 9.5638L7.43868 1.35208C7.53092 1.23682 7.63563 1.13212 7.7509 1.0399C8.61343 0.349879 9.87201 0.489722 10.562 1.35225L17.1314 9.56392C17.3441 9.82989 17.4601 10.1604 17.4601 10.501C17.4601 11.3294 16.7885 12.001 15.9601 12.001H15.0004V16.001C15.0004 17.1055 14.1049 18.001 13.0004 18.001H5.00038C3.89581 18.001 3.00038 17.1055 3.00038 16.001V12.001Z" fill="#454545"/>
</svg>
