<svg width="20" height="20" viewBox="0 0 20 20" fill="none" xmlns="http://www.w3.org/2000/svg">
<path d="M13.358 7.48534L13.4162 7.59918L16.9162 15.5992C17.1375 16.1052 16.9068 16.6948 16.4008 16.9162C15.931 17.1217 15.389 16.9375 15.1368 16.505L15.0838 16.4008L14.033 14H10.966L9.91616 16.4008C9.7106 16.8707 9.18751 17.1032 8.70872 16.9567L8.59918 16.9162C8.12934 16.7106 7.89684 16.1875 8.04326 15.7087L8.08384 15.5992L11.5838 7.59918C11.9159 6.84022 12.9553 6.80227 13.358 7.48534ZM12.5 10.495L11.841 12H13.159L12.5 10.495ZM7 2C7.51284 2 7.93551 2.38604 7.99327 2.88338L8 3V4L8.99261 3.99976C9.0046 3.99967 9.01661 3.99979 9.02864 4.00014L11 4C11.5523 4 12 4.44772 12 5C12 5.51284 11.614 5.93551 11.1166 5.99327L11 6L9.67501 6.00076C9.29287 6.88897 8.83511 7.70543 8.3024 8.44898C8.70715 8.86213 9.14823 9.23752 9.62587 9.57671L8.81029 11.4419C8.15241 11.0075 7.54849 10.5184 6.99896 9.97542C6.26258 10.7048 5.4277 11.3359 4.49604 11.8682C4.01652 12.1423 3.40567 11.9757 3.13166 11.4961C2.85765 11.0166 3.02424 10.4058 3.50376 10.1318C4.3271 9.66128 5.0584 9.10096 5.69888 8.44869C5.16491 7.70557 4.70727 6.88939 4.32522 6.00152L3 6C2.44772 6 2 5.55228 2 5C2 4.48716 2.38604 4.06449 2.88338 4.00673L3 4L4.97126 4.00014C4.98329 3.99979 4.9953 3.99967 5.00729 3.99976L6 4V3C6 2.44772 6.44772 2 7 2ZM7.46296 6.00104L6.5372 6.00153C6.6817 6.2788 6.83563 6.54613 6.99903 6.80361C7.1644 6.54594 7.3184 6.27846 7.46296 6.00104Z" fill="black"/>
</svg>
