<svg width="20" height="20" viewBox="0 0 20 20" fill="none" xmlns="http://www.w3.org/2000/svg">
<path d="M3 6C2.44772 6 2 5.55228 2 5C2 4.44772 2.44772 4 3 4C3.55228 4 4 4.44772 4 5C4 5.55228 3.55228 6 3 6ZM3 11C2.44772 11 2 10.5523 2 10C2 9.44772 2.44772 9 3 9C3.55228 9 4 9.44772 4 10C4 10.5523 3.55228 11 3 11ZM3 16C2.44772 16 2 15.5523 2 15C2 14.4477 2.44772 14 3 14C3.55228 14 4 14.4477 4 15C4 15.5523 3.55228 16 3 16ZM7 4H17C17.5523 4 18 4.44772 18 5C18 5.55228 17.5523 6 17 6H7C6.44772 6 6 5.55228 6 5C6 4.44772 6.44772 4 7 4ZM7 9H17C17.5523 9 18 9.44772 18 10C18 10.5523 17.5523 11 17 11H7C6.44772 11 6 10.5523 6 10C6 9.44772 6.44772 9 7 9ZM7 14H17C17.5523 14 18 14.4477 18 15C18 15.5523 17.5523 16 17 16H7C6.44772 16 6 15.5523 6 15C6 14.4477 6.44772 14 7 14Z" fill="white"/>
</svg>
