<svg width="16" height="16" viewBox="0 0 16 16" fill="none" xmlns="http://www.w3.org/2000/svg">
<path d="M15 0C15.2559 0 15.5118 0.097631 15.7071 0.292893C15.9024 0.488155 16 0.744078 16 1V6C16 6.55228 15.5523 7 15 7C14.4477 7 14 6.55228 14 6V3.41421L9.20711 8.20711C8.81658 8.59763 8.18342 8.59763 7.79289 8.20711C7.40237 7.81658 7.40237 7.18342 7.79289 6.79289L12.5858 2H10C9.44772 2 9 1.55228 9 1C9 0.447715 9.44772 0 10 0H15ZM16 10V13.7181C16 14.2754 15.9354 14.6101 15.7482 14.96C15.5679 15.2973 15.2973 15.5679 14.96 15.7482C14.6101 15.9354 14.2754 16 13.7181 16H2.28194C1.72457 16 1.38986 15.9354 1.03998 15.7482C0.702747 15.5679 0.432106 15.2973 0.251753 14.96C0.0646359 14.6101 0 14.2754 0 13.7181V2.28194C0 1.72457 0.0646359 1.38986 0.251753 1.03998C0.432106 0.702747 0.702747 0.432106 1.03998 0.251753C1.38986 0.0646359 1.72457 0 2.28194 0H6C6.55228 0 7 0.447715 7 1C7 1.55228 6.55228 2 6 2H2.5C2.22386 2 2 2.22386 2 2.5V13.5C2 13.7761 2.22386 14 2.5 14H13.5C13.7761 14 14 13.7761 14 13.5V10C14 9.44772 14.4477 9 15 9C15.5523 9 16 9.44772 16 10Z" fill="currentColor"/>
</svg>
