<svg width="20" height="20" viewBox="0 0 20 20" fill="none" xmlns="http://www.w3.org/2000/svg">
<g clip-path="url(#clip0_355:4770)">
<path d="M6.53976 8.53956C6.05799 7.92015 6.11286 7.03893 6.66773 6.48405C7.09675 6.05503 7.21306 5.88139 7.27973 5.66141C7.32962 5.49682 7.32962 5.33695 7.27973 5.17236C7.21306 4.95239 7.09675 4.77874 6.66773 4.34972L5.97364 3.65563C5.54462 3.22661 5.37097 3.1103 5.15099 3.04362C4.9864 2.99374 4.82654 2.99374 4.66195 3.04362C4.44197 3.1103 4.26833 3.22661 3.8393 3.65563C2.80132 4.69361 2.71874 6.34926 3.64829 7.48538L4.61977 8.67274C6.6937 11.2075 9.01531 13.5292 11.5501 15.6031L12.7375 16.5746C13.8736 17.5041 15.5292 17.4215 16.5672 16.3835C16.9962 15.9545 17.1126 15.7809 17.1792 15.5609C17.2291 15.3963 17.2291 15.2364 17.1792 15.0719C17.1126 14.8519 16.9962 14.6782 16.5672 14.2492L15.8731 13.5551C15.4441 13.1261 15.2705 13.0098 15.0505 12.9431C14.8859 12.8932 14.726 12.8932 14.5614 12.9431C14.3415 13.0098 14.1678 13.1261 13.7388 13.5551C13.1839 14.11 12.3027 14.1649 11.6833 13.6831L10.4797 12.747C9.35764 11.8743 8.3486 10.8652 7.47588 9.74314L6.53976 8.53956ZM9.05458 8.51526C9.82538 9.50628 10.7166 10.3975 11.7076 11.1683L12.6078 11.8684C13.1062 11.4099 13.4958 11.1763 13.9813 11.0291C14.5242 10.8646 15.0878 10.8646 15.6306 11.0291C16.2042 11.2029 16.644 11.4975 17.2873 12.1409L17.9814 12.835C18.6248 13.4784 18.9194 13.9182 19.0932 14.4917C19.2578 15.0346 19.2578 15.5982 19.0932 16.141C18.9194 16.7146 18.6248 17.1544 17.9814 17.7978C16.2169 19.5623 13.4024 19.7027 11.471 18.1225L10.2836 17.151C7.6459 14.9928 5.23001 12.577 3.07185 9.93921L2.10038 8.75185C0.520172 6.82049 0.660549 4.00596 2.42509 2.24141C3.06848 1.59803 3.50828 1.30345 4.08182 1.12961C4.62466 0.965075 5.18828 0.965075 5.73112 1.12961C6.30466 1.30345 6.74447 1.59803 7.38785 2.24141L8.08194 2.93551C8.72533 3.57889 9.01991 4.0187 9.19375 4.59223C9.35828 5.13508 9.35828 5.69869 9.19375 6.24154C9.0466 6.72702 8.81294 7.11668 8.35445 7.61509L9.05458 8.51526Z" fill="#C30144"/>
</g>
<defs>
<clipPath id="clip0_355:4770">
<rect width="20" height="20" fill="white"/>
</clipPath>
</defs>
</svg>
