<svg width="20" height="20" viewBox="0 0 20 20" fill="none" xmlns="http://www.w3.org/2000/svg">
<path d="M5.62642 2.13247C6.10892 1.86374 6.71791 2.03703 6.98664 2.51953C7.25537 3.00202 7.08208 3.61101 6.59958 3.87975C4.39506 5.10758 3 7.43093 3 10C3 13.866 6.13401 17 10 17C12.5825 17 14.9162 15.5902 16.1386 13.3674C16.4047 12.8834 17.0127 12.7068 17.4967 12.9729C17.9806 13.2391 18.1572 13.8471 17.8911 14.331C16.3207 17.1868 13.3193 19 10 19C5.02944 19 1 14.9706 1 10C1 6.69803 2.79423 3.70989 5.62642 2.13247ZM10 1C14.9706 1 19 5.02944 19 10C19 10.5523 18.5523 11 18 11H10C9.44772 11 9 10.5523 9 10V2C9 1.44772 9.44772 1 10 1ZM11 3.07089V9H16.9291C16.4906 5.93431 14.0657 3.5094 11 3.07089Z" fill="white"/>
</svg>
