<svg width="20" height="20" viewBox="0 0 20 20" fill="none" xmlns="http://www.w3.org/2000/svg">
<path d="M10.7803 17.6254C10.38 18.1249 9.62 18.1249 9.21969 17.6254C5.74653 13.2919 4 10.1481 4 8C4 4.68629 6.68629 2 10 2C13.3137 2 16 4.68629 16 8C16 10.1481 14.2535 13.2919 10.7803 17.6254ZM14 8C14 5.79086 12.2091 4 10 4C7.79086 4 6 5.79086 6 8C6 9.40327 7.32825 11.9135 10 15.3821C12.6717 11.9135 14 9.40327 14 8ZM10 10C8.89543 10 8 9.10457 8 8C8 6.89543 8.89543 6 10 6C11.1046 6 12 6.89543 12 8C12 9.10457 11.1046 10 10 10Z" fill="black"/>
</svg>
