<svg width="32" height="32" viewBox="0 0 32 32" fill="none" xmlns="http://www.w3.org/2000/svg">
<path d="M27.2001 17.5996V7.30183C27.2001 6.24286 27.1378 5.92038 26.9618 5.59121C26.832 5.34856 26.6511 5.16769 26.4085 5.03792C26.0793 4.86188 25.7568 4.79961 24.6979 4.79961H7.30231C6.24335 4.79961 5.92087 4.86188 5.5917 5.03792C5.34905 5.16769 5.16818 5.34856 5.03841 5.59121C4.86237 5.92038 4.8001 6.24286 4.8001 7.30183V17.5996H12.8001C13.6838 17.5996 14.4001 18.316 14.4001 19.1996C14.4001 20.0833 15.1164 20.7996 16.0001 20.7996C16.8838 20.7996 17.6001 20.0833 17.6001 19.1996C17.6001 18.316 18.3164 17.5996 19.2001 17.5996H27.2001ZM27.2001 20.7996H20.527C19.868 22.6639 18.09 23.9996 16.0001 23.9996C13.9101 23.9996 12.1322 22.6639 11.4732 20.7996H4.8001V24.6974C4.8001 25.7564 4.86237 26.0788 5.03841 26.408C5.16818 26.6507 5.34905 26.8315 5.5917 26.9613C5.92087 27.1373 6.24335 27.1996 7.30231 27.1996H24.6979C25.7568 27.1996 26.0793 27.1373 26.4085 26.9613C26.6511 26.8315 26.832 26.6507 26.9618 26.408C27.1378 26.0788 27.2001 25.7564 27.2001 24.6974V20.7996ZM7.30231 1.59961H24.6979C26.2399 1.59961 27.0615 1.75826 27.9176 2.21612C28.7179 2.64413 29.3556 3.28179 29.7836 4.0821C30.2414 4.93823 30.4001 5.75978 30.4001 7.30183V24.6974C30.4001 26.2394 30.2414 27.061 29.7836 27.9171C29.3556 28.7174 28.7179 29.3551 27.9176 29.7831C27.0615 30.241 26.2399 30.3996 24.6979 30.3996H7.30231C5.76026 30.3996 4.93872 30.241 4.08259 29.7831C3.28228 29.3551 2.64462 28.7174 2.21661 27.9171C1.75875 27.061 1.6001 26.2394 1.6001 24.6974V7.30183C1.6001 5.75978 1.75875 4.93823 2.21661 4.0821C2.64462 3.28179 3.28228 2.64413 4.08259 2.21612C4.93872 1.75826 5.76026 1.59961 7.30231 1.59961Z" fill="currentColor"/>
</svg>
