<svg width="32" height="32" viewBox="0 0 32 32" fill="none" xmlns="http://www.w3.org/2000/svg">
<path d="M18.4001 9.6001H13.6001H7.21482C6.24406 9.6001 5.91601 9.66497 5.5917 9.83841C5.34905 9.96818 5.16818 10.1491 5.03841 10.3917C4.86497 10.716 4.8001 11.0441 4.8001 12.0148V13.5854C4.8001 14.5561 4.86497 14.8842 5.03841 15.2085C5.16818 15.4511 5.34905 15.632 5.5917 15.7618C5.91601 15.9352 6.24406 16.0001 7.21482 16.0001H12.8001C12.8001 15.1164 13.5164 14.4001 14.4001 14.4001H17.6001C18.4838 14.4001 19.2001 15.1164 19.2001 16.0001H24.7854C25.7561 16.0001 26.0842 15.9352 26.4085 15.7618C26.6511 15.632 26.832 15.4511 26.9618 15.2085C27.1352 14.8842 27.2001 14.5561 27.2001 13.5854V12.0148C27.2001 11.0441 27.1352 10.716 26.9618 10.3917C26.832 10.1491 26.6511 9.96818 26.4085 9.83841C26.0842 9.66497 25.7561 9.6001 24.7854 9.6001H18.4001ZM9.68011 6.4001C9.62764 6.14161 9.6001 5.87407 9.6001 5.6001C9.6001 3.39096 11.391 1.6001 13.6001 1.6001H18.4001C20.6092 1.6001 22.4001 3.39096 22.4001 5.6001C22.4001 5.87407 22.3726 6.14161 22.3201 6.4001H24.7854C25.7365 6.4001 26.4209 6.47023 27.0169 6.64497C27.3335 6.73733 27.6235 6.85931 27.9176 7.01661C28.7179 7.44462 29.3556 8.08228 29.7836 8.88259C29.9409 9.1767 30.0629 9.46674 30.1552 9.7833C30.33 10.3793 30.4001 11.0637 30.4001 12.0148V13.5854V23.0979C30.4001 24.6399 30.2414 25.4615 29.7836 26.3176C29.3556 27.1179 28.7179 27.7556 27.9176 28.1836C27.0615 28.6414 26.2399 28.8001 24.6979 28.8001H7.30231C5.76026 28.8001 4.93872 28.6414 4.08259 28.1836C3.28228 27.7556 2.64462 27.1179 2.21661 26.3176C1.75875 25.4615 1.6001 24.6399 1.6001 23.0979V12.8438V12.0148C1.6001 11.0637 1.67023 10.3793 1.84497 9.7833C1.93733 9.46674 2.05931 9.1767 2.21661 8.88259C2.64462 8.08228 3.28228 7.44462 4.08259 7.01661C4.3767 6.85931 4.66674 6.73733 4.9833 6.64497C5.5793 6.47023 6.26368 6.4001 7.21482 6.4001H9.68011ZM12.8001 19.2001H7.21482C6.16481 19.2001 5.4399 19.1146 4.8001 18.8973V23.0979C4.8001 24.1568 4.86237 24.4793 5.03841 24.8085C5.16818 25.0511 5.34905 25.232 5.5917 25.3618C5.92087 25.5378 6.24335 25.6001 7.30231 25.6001H24.6979C25.7568 25.6001 26.0793 25.5378 26.4085 25.3618C26.6511 25.232 26.832 25.0511 26.9618 24.8085C27.1378 24.4793 27.2001 24.1568 27.2001 23.0979V18.8973C26.5603 19.1146 25.8354 19.2001 24.7854 19.2001H19.2001C19.2001 20.0838 18.4838 20.8001 17.6001 20.8001H14.4001C13.5164 20.8001 12.8001 20.0838 12.8001 19.2001ZM13.6001 4.8001C13.1583 4.8001 12.8001 5.15827 12.8001 5.6001C12.8001 6.04192 13.1583 6.4001 13.6001 6.4001H18.4001C18.8419 6.4001 19.2001 6.04192 19.2001 5.6001C19.2001 5.15827 18.8419 4.8001 18.4001 4.8001H13.6001Z" fill="white"/>
</svg>
