<svg width="32" height="32" viewBox="0 0 32 32" fill="none" xmlns="http://www.w3.org/2000/svg">
<g clip-path="url(#clip0_391_4780)">
<path d="M17.6 14.4H20.8C21.6837 14.4 22.4 15.1163 22.4 16C22.4 16.8837 21.6837 17.6 20.8 17.6H16C15.1163 17.6 14.4 16.8837 14.4 16V9.6C14.4 8.71634 15.1163 8 16 8C16.8837 8 17.6 8.71634 17.6 9.6V14.4ZM16 1.6C23.9529 1.6 30.4 8.0471 30.4 16C30.4 23.9529 23.9529 30.4 16 30.4C8.0471 30.4 1.6 23.9529 1.6 16C1.6 8.0471 8.0471 1.6 16 1.6ZM16 4.8C9.81441 4.8 4.8 9.81441 4.8 16C4.8 22.1856 9.81441 27.2 16 27.2C22.1856 27.2 27.2 22.1856 27.2 16C27.2 9.81441 22.1856 4.8 16 4.8ZM2.73137 5.93137C2.10653 6.55621 1.09347 6.55621 0.468629 5.93137C-0.15621 5.30653 -0.15621 4.29347 0.468629 3.66863L3.66863 0.468629C4.29347 -0.15621 5.30653 -0.15621 5.93137 0.468629C6.55621 1.09347 6.55621 2.10653 5.93137 2.73137L2.73137 5.93137ZM29.2686 5.93137L26.0686 2.73137C25.4438 2.10653 25.4438 1.09347 26.0686 0.468629C26.6935 -0.15621 27.7065 -0.15621 28.3314 0.468629L31.5314 3.66863C32.1562 4.29347 32.1562 5.30653 31.5314 5.93137C30.9065 6.55621 29.8935 6.55621 29.2686 5.93137Z" fill="currentColor"/>
</g>
<defs>
<clipPath id="clip0_391_4780">
<rect width="32" height="32" fill="white"/>
</clipPath>
</defs>
</svg>