<svg width="20" height="20" viewBox="0 0 20 20" fill="none" xmlns="http://www.w3.org/2000/svg">
<path d="M6.28619 12.7129C4.89372 11.6141 3.99991 9.91144 3.99991 8C3.99991 4.68629 6.6862 2 9.99991 2C13.3136 2 15.9999 4.68629 15.9999 8C15.9999 9.91143 15.1061 11.6141 13.7137 12.7129C15.5013 13.4276 17.0597 14.6517 18.1879 16.2579C18.5054 16.7098 18.3964 17.3336 17.9445 17.651C17.4925 17.9685 16.8688 17.8595 16.5514 17.4075C15.0617 15.2869 12.6399 14 9.99991 14C7.33835 14 4.89909 15.3082 3.41355 17.4576C3.09955 17.912 2.47669 18.0257 2.02235 17.7117C1.56802 17.3977 1.45426 16.7749 1.76827 16.3205C2.89931 14.684 4.4749 13.437 6.28619 12.7129ZM9.99991 12C12.2091 12 13.9999 10.2091 13.9999 8C13.9999 5.79086 12.2091 4 9.99991 4C7.79077 4 5.99991 5.79086 5.99991 8C5.99991 10.2091 7.79077 12 9.99991 12Z" fill="black"/>
</svg>
